<?xml version="1.0" encoding="UTF-8" standalone="no"?>
<svg width="796px" height="397px" viewBox="0 0 796 397" version="1.1" xmlns="http://www.w3.org/2000/svg" xmlns:xlink="http://www.w3.org/1999/xlink" xmlns:sketch="http://www.bohemiancoding.com/sketch/ns">
    <!-- Generator: Sketch 3.2.2 (9983) - http://www.bohemiancoding.com/sketch -->
    <title>Group</title>
    <desc>Created with Sketch.</desc>
    <defs>
        <path id="path-1" d="M0.00618556701,0.0407707317 L29.9161856,0.0407707317 L29.9161856,42 L0.00618556701,42"></path>
    </defs>
    <g id="Page-1" stroke="none" stroke-width="1" fill="none" fill-rule="evenodd" sketch:type="MSPage">
        <g id="Group" sketch:type="MSLayerGroup">
            <rect id="Rectangle-1" fill="#FAFAFC" sketch:type="MSShapeGroup" x="0" y="0" width="796" height="397"></rect>
            <g id="HTML-5-Vector-Logo" transform="translate(221.000000, 51.000000)">
                <g id="Group-3">
                    <mask id="mask-2" sketch:name="Clip 2" fill="white">
                        <use xlink:href="#path-1"></use>
                    </mask>
                    <g id="Clip-2"></g>
                    <path d="M14.9395876,42 L2.72268041,38.6298585 L0,8.28670244 L29.9161856,8.28670244 L27.1907216,38.6250439 L14.9395876,42 L28.2478078,18.7629863" id="Fill-1" fill="#ECEDED" sketch:type="MSShapeGroup" mask="url(#mask-2)"></path>
                </g>
                <path d="M14.9580412,25.7429268 L14.9580412,22.021522 L10.0023711,22.021522 L9.66010309,18.2104829 L14.9580412,18.2104829 L14.9580412,14.489078 L5.56690722,14.489078 L6.57701031,25.7429268 L14.9580412,25.7429268" id="Fill-5" fill="#FFFFFF" sketch:type="MSShapeGroup"></path>
                <path d="M14.9580412,31.686439 L14.9415464,31.6908439 L10.7708247,30.5715951 L10.5042268,27.6035268 L6.74453608,27.6035268 L7.26927835,33.4465463 L14.9407216,35.5631415 L14.9580412,35.5583268 L14.9580412,31.686439" id="Fill-6" fill="#FFFFFF" sketch:type="MSShapeGroup"></path>
                <path d="M4.68670103,0.0407707317 L4.68670103,1.90905366 L6.42762887,1.90905366 L6.42762887,0.0407707317 L8.33123711,0.0407707317 L8.33123711,5.6988878 L6.42762887,5.6988878 L6.42762887,3.80417561 L4.68670103,3.80417561 L4.68670103,5.6988878 L2.78350515,5.6988878 L2.78350515,0.0407707317 L4.68670103,0.0407707317 Z" id="Fill-7" fill="#ECEDED" sketch:type="MSShapeGroup"></path>
                <path d="M10.8340206,1.9170439 L9.15835052,1.9170439 L9.15835052,0.0407707317 L14.4136082,0.0407707317 L14.4136082,1.9170439 L12.7372165,1.9170439 L12.7372165,5.6988878 L10.8340206,5.6988878 L10.8340206,1.9170439" id="Fill-8" fill="#ECEDED" sketch:type="MSShapeGroup"></path>
                <path d="M15.2476289,0.0407707317 L17.2321649,0.0407707317 L18.4531959,2.02870244 L19.6725773,0.0407707317 L21.6579381,0.0407707317 L21.6579381,5.6988878 L19.7623711,5.6988878 L19.7623711,2.89461951 L18.4531959,4.90621463 L18.4201031,4.90621463 L17.1096907,2.89461951 L17.1096907,5.6988878 L15.2476289,5.6988878 L15.2476289,0.0407707317" id="Fill-9" fill="#ECEDED" sketch:type="MSShapeGroup"></path>
                <path d="M22.6050515,0.0407707317 L24.5090722,0.0407707317 L24.5090722,3.82865854 L27.1854639,3.82865854 L27.1854639,5.6988878 L22.6050515,5.6988878 L22.6050515,0.0407707317" id="Fill-10" fill="#ECEDED" sketch:type="MSShapeGroup"></path>
                <path d="M23.6509278,22.021522 L14.9451546,22.021522 L14.9451546,25.7429268 L19.5570103,25.7429268 L19.1220619,30.569239 L14.9451546,31.6896146 L14.9451546,35.5610927 L22.6227835,33.4465463 L23.5594845,23.0207122 L23.6509278,22.021522" id="Fill-11" fill="#FFFFFF" sketch:type="MSShapeGroup"></path>
                <path d="M24.3270103,14.489078 L14.9451546,14.489078 L14.9451546,18.2104829 L23.9915464,18.2104829 L24.0664948,17.3741707 L24.2372165,15.4874488 L24.3270103,14.489078" id="Fill-12" fill="#FFFFFF" sketch:type="MSShapeGroup"></path>
            </g>
            <g id="html5_3d_effects" transform="translate(572.000000, 54.000000)" fill="#ECEDED" sketch:type="MSShapeGroup">
                <path d="M16.2074689,0 L8.52697095,2.5559633 L25.1701245,8.11743119 L25.1701245,19.0733945 L14.0788382,22.7724771 L4.71784232,19.6513761 L4.71784232,8.91376147 L13.7676349,11.9321101 L21.4481328,9.37614679 L4.78008299,3.80183486 L0,5.40733945 L0,23.1963303 L14.0788382,27.8972477 L29.9004149,22.6183486 L29.9004149,4.55963303 L16.2074689,0 Z" id="Shape"></path>
            </g>
            <g id="html5_connectivity" transform="translate(365.000000, 290.000000)" fill="#ECEDED" sketch:type="MSShapeGroup">
                <path d="M22.5,17.25 L26.2156863,17.25 L26.2156863,8.15 L22.0294118,3.88 L19.4019608,6.56 L22.5,9.72 L22.5,17.25 L22.5,17.25 Z M26.2254902,19.15 L20.8137255,19.15 L13.2647059,19.15 L10.1666667,15.99 L11.4803922,14.65 L14.0392157,17.26 L19.3039216,17.26 L14.1176471,11.96 L15.4411765,10.61 L20.627451,15.9 L20.627451,10.53 L18.0784314,7.93 L19.3823529,6.6 L12.9411765,0 L6.58823529,0 L0,0 L3.70588235,3.78 L3.70588235,3.79 L3.7254902,3.79 L11.3921569,3.79 L14.1078431,6.56 L10.1372549,10.61 L7.42156863,7.84 L7.42156863,5.69 L3.70588235,5.69 L3.70588235,9.41 L10.1372549,15.97 L7.51960784,18.64 L11.7058824,22.91 L18.0588235,22.91 L29.9313725,22.91 L26.2254902,19.15 L26.2254902,19.15 Z" id="Shape"></path>
            </g>
            <g id="html5_css3_styling" transform="translate(472.000000, 153.000000)" fill="#ECEDED" sketch:type="MSShapeGroup">
                <path d="M4.45248869,0 L3.4479638,5.18 L23.8914027,5.18 L23.2533937,8.526 L2.79638009,8.526 L1.80542986,13.706 L22.2488688,13.706 L21.1085973,19.614 L12.8687783,22.428 L5.72850679,19.614 L6.21719457,17.052 L1.19457014,17.052 L0,23.268 L11.8099548,27.93 L25.4253394,23.268 L27.2307692,13.916 L27.5972851,12.04 L29.918552,0 L4.45248869,0 Z" id="Shape"></path>
            </g>
            <g id="html5_device_access" transform="translate(228.000000, 170.000000)" fill="#ECEDED" sketch:type="MSShapeGroup">
                <path d="M21.7651822,6.23562232 L27.8502024,0 L21.3279352,0 L15.0121457,6.472103 L8.68421053,0 L2.16194332,0 L8.24696356,6.23562232 L0,6.23562232 L0,29 L4.33603239,29 L9.03643725,29 L10.8461538,29 L14.9878543,24.755794 L19.1295547,29 L21.534413,29 L25.6518219,29 L29.9878543,29 L29.9878543,6.23562232 L21.7651822,6.23562232 L21.7651822,6.23562232 Z M15,18.0596567 L8.951417,24.2703863 L4.61538462,24.2703863 L4.61538462,10.9652361 L25.3967611,10.9652361 L25.3967611,24.2703863 L21.0607287,24.2703863 L15,18.0596567 L15,18.0596567 Z" id="Shape"></path>
            </g>
            <g id="html5_multimedia" transform="translate(693.000000, 167.000000)" fill="#ECEDED" sketch:type="MSShapeGroup">
                <path d="M29.9262295,0 L23.3237705,0 L18.6516393,4.86417112 L25.2540984,4.86417112 L29.9262295,0 Z M15,4.86417112 L19.6598361,0 L13.057377,0 L8.3852459,4.86417112 L15,4.86417112 Z M25.2663934,19.0716578 L4.65983607,19.0716578 L4.65983607,4.91550802 L9.38114754,0 L2.76639344,0 L0,2.88770053 L0,23.9486631 L29.9385246,23.9486631 L29.9385246,4.86417112 L25.2663934,4.86417112 L25.2663934,19.0716578 Z" id="Shape"></path>
            </g>
            <g id="html5_offline_storage" transform="translate(213.000000, 301.000000)" fill="#ECEDED" sketch:type="MSShapeGroup">
                <path d="M29.9084746,8.29961089 L25.0474576,8.29961089 C23.0542373,3.35136187 18.3050847,0 13.0271186,0 C5.84745763,0 0,6.03035019 0,13.4579767 C0,20.8856031 5.84745763,26.9264591 13.0271186,26.9264591 C18.3050847,26.9264591 23.0440678,23.5856031 25.0474576,18.6268482 L29.8983051,18.6268482 L29.8983051,8.29961089 L29.9084746,8.29961089 Z M26.0440678,14.6241245 L13.0271186,14.6241245 C12.4067797,14.6241245 11.8983051,14.1093385 11.8983051,13.4579767 C11.8983051,12.8171206 12.3966102,12.2918288 13.0271186,12.2918288 L26.0338983,12.2918288 L26.0338983,14.6241245 L26.0440678,14.6241245 Z M13.0271186,22.9342412 C7.97288136,22.9342412 3.86440678,18.6898833 3.86440678,13.4684825 C3.86440678,8.24708171 7.97288136,4.00272374 13.0271186,4.00272374 C16.159322,4.00272374 19.0372881,5.68365759 20.7050847,8.31011673 L13.0271186,8.31011673 C10.2813559,8.31011673 8.03389831,10.6214008 8.03389831,13.4684825 C8.03389831,16.3050584 10.2711864,18.6268482 13.0271186,18.6268482 L20.7050847,18.6268482 C19.0474576,21.2533074 16.1694915,22.9342412 13.0271186,22.9342412 L13.0271186,22.9342412 Z" id="Shape"></path>
            </g>
            <g id="html5_perfintegration" transform="translate(561.000000, 276.000000)" fill="#ECEDED" sketch:type="MSShapeGroup">
                <path d="M29.7163636,12.4778182 L25.3396364,10.6625455 L27.1418182,6.31090909 C26.6814545,5.66727273 26.184,5.05854545 25.6363636,4.50436364 C25.6036364,4.46945455 25.5709091,4.43345455 25.536,4.39854545 C25.4803636,4.34290909 25.4192727,4.28945455 25.3581818,4.23272727 C24.8225455,3.70690909 24.2334545,3.23018182 23.6127273,2.78290909 L19.2610909,4.58290909 L17.4469091,0.207272727 C15.8705455,-0.0589090909 14.28,-0.0654545455 12.7407273,0.169090909 C12.7123636,0.172363636 12.6883636,0.174545455 12.6654545,0.176727273 C12.5989091,0.186545455 12.5345455,0.200727273 12.4745455,0.214909091 L10.6603636,4.58072727 L6.28363636,2.76981818 C4.97672727,3.70254545 3.84109091,4.824 2.91381818,6.09054545 C2.90509091,6.10363636 2.89418182,6.11672727 2.88436364,6.13090909 C2.84618182,6.18327273 2.80909091,6.23781818 2.77309091,6.29345455 L4.58072727,10.6570909 L0.205090909,12.4734545 C-0.0567272727,14.0498182 -0.0654545455,15.636 0.166909091,17.1741818 C0.170181818,17.2014545 0.172363636,17.2309091 0.177818182,17.2570909 C0.185454545,17.3214545 0.198545455,17.3836364 0.210545455,17.4469091 L4.58072727,19.2556364 L2.77309091,23.6181818 C3.18872727,24.2007273 3.63709091,24.7592727 4.12472727,25.2709091 C4.21090909,25.3614545 4.29272727,25.4563636 4.38327273,25.5458182 C4.44545455,25.6101818 4.51636364,25.6690909 4.58290909,25.7312727 C5.10872727,26.2429091 5.688,26.7065455 6.29563636,27.1418182 L10.656,25.3352727 L12.4647273,29.7043636 C12.5290909,29.7174545 12.5978182,29.7294545 12.6632727,29.7447273 C12.6785455,29.7425455 12.6981818,29.7458182 12.7145455,29.748 C14.2603636,29.9858182 15.8541818,29.9781818 17.4414545,29.7141818 L19.2545455,25.3374545 L23.6203636,27.1461818 C23.6770909,27.1123636 23.7327273,27.0741818 23.7861818,27.0338182 C23.8025455,27.024 23.8189091,27.0098182 23.8374545,26.9956364 C25.0930909,26.0727273 26.2134545,24.9425455 27.1450909,23.6389091 L25.332,19.26 L29.7021818,17.4512727 C29.7130909,17.3890909 29.7272727,17.3225455 29.7392727,17.2549091 C29.7414545,17.2352727 29.7414545,17.2145455 29.7447273,17.1949091 C29.9869091,15.6512727 29.9803636,14.0607273 29.7163636,12.4778182 L29.7163636,12.4778182 Z M26.1796364,15.7778182 L21.5738182,17.6858182 L21.5803636,17.7032727 L21.5650909,17.7087273 L23.4741818,22.3123636 C23.1185455,22.7269091 22.7312727,23.1109091 22.3145455,23.472 L17.7087273,21.5661818 L17.7032727,21.5814545 L17.688,21.5738182 L15.7810909,26.1774545 C15.2367273,26.2178182 14.6934545,26.2156364 14.1425455,26.1796364 L12.2334545,21.5738182 L12.2203636,21.5792727 L12.2127273,21.5618182 L7.59272727,23.4763636 C7.54472727,23.436 7.49127273,23.4 7.44327273,23.3552727 C7.29054545,23.22 7.14654545,23.0661818 7.00145455,22.9189091 C6.85636364,22.7738182 6.70472727,22.6341818 6.56618182,22.4803636 C6.52581818,22.4367273 6.48872727,22.38 6.44727273,22.3309091 L8.35854545,17.7109091 L8.34327273,17.7032727 L8.35090909,17.6890909 L3.744,15.7810909 C3.708,15.2312727 3.70472727,14.6847273 3.74727273,14.1425455 L8.34872727,12.2367273 L8.34436364,12.2225455 L8.35745455,12.2170909 L6.44618182,7.60690909 C6.80727273,7.19127273 7.19236364,6.80290909 7.60472727,6.44836364 L12.2105455,8.35418182 L12.216,8.34109091 L12.2290909,8.34654545 L14.1381818,3.74072727 C14.688,3.70254545 15.2334545,3.70254545 15.7778182,3.74290909 L17.6836364,8.34872727 L17.7032727,8.35636364 L22.3090909,6.44836364 C22.5087273,6.624 22.7007273,6.81163636 22.8938182,7.00036364 C23.088,7.19781818 23.2821818,7.39636364 23.4632727,7.60690909 L21.5574545,12.2105455 L21.5727273,12.216 L21.5661818,12.2334545 L26.1709091,14.1392727 C26.2189091,14.6836364 26.22,15.2301818 26.1796364,15.7778182 L26.1796364,15.7778182 Z M18.828,13.3636364 L18.8214545,13.3505455 L19.9374545,10.6647273 C19.7334545,10.4236364 19.5043636,10.2 19.2621818,9.98509091 L16.572,11.0978182 L16.5687273,11.0912727 L16.56,11.0934545 L15.4472727,8.40545455 C15.1298182,8.38036364 14.8112727,8.38036364 14.4905455,8.40545455 L13.3767273,11.0923636 L13.3690909,11.0923636 L13.3647273,11.0956364 L10.6756364,9.98618182 C10.4356364,10.1901818 10.212,10.416 9.996,10.6570909 L11.112,13.3483636 L11.1032727,13.3516364 L11.1065455,13.3614545 L8.40872727,14.4807273 C8.40545455,14.5145455 8.4,14.5549091 8.39781818,14.5898182 C8.39236364,14.7087273 8.39672727,14.8309091 8.39563636,14.9509091 C8.39563636,15.0698182 8.39127273,15.1930909 8.40109091,15.3130909 C8.40109091,15.3501818 8.40327273,15.3872727 8.40981818,15.4254545 L11.1076364,16.5425455 L11.1076364,16.5545455 L11.1130909,16.5578182 L10.0014545,19.2469091 C10.2065455,19.4869091 10.4356364,19.7105455 10.6789091,19.9178182 L13.3658182,18.8050909 L13.368,18.816 L13.3778182,18.8127273 L14.4916364,21.5018182 C14.8145455,21.5269091 15.1330909,21.5269091 15.4494545,21.5018182 L16.5621818,18.8127273 L16.5709091,18.816 L16.5763636,18.8061818 L19.2632727,19.9167273 C19.5054545,19.7094545 19.7290909,19.4836364 19.9385455,19.2436364 L18.8258182,16.5567273 L18.8334545,16.5512727 L18.8301818,16.5414545 L21.5170909,15.4287273 C21.528,15.2672727 21.5301818,15.1014545 21.5323636,14.9432727 C21.5323636,14.7861818 21.5301818,14.628 21.5192727,14.4741818 L18.828,13.3636364 L18.828,13.3636364 Z M14.9618182,16.7738182 C13.9603636,16.7738182 13.1476364,15.9621818 13.1476364,14.9596364 C13.1476364,13.9581818 13.9592727,13.1454545 14.9618182,13.1454545 C15.9643636,13.1454545 16.776,13.9570909 16.776,14.9596364 C16.776,15.9610909 15.9632727,16.7738182 14.9618182,16.7738182 L14.9618182,16.7738182 Z" id="Shape"></path>
            </g>
            <g id="html5_semantics" transform="translate(380.000000, 81.000000)" fill="#ECEDED" sketch:type="MSShapeGroup">
                <path d="M14.9540078,0 L0,7.55766537 L0,12.5276265 L14.9540078,4.97007782 L29.9013619,12.5276265 L29.9013619,7.55766537 L14.9540078,0 Z" id="chevron"></path>
                <g id="chevron-link" transform="translate(0.000000, 8.675019)">
                    <path d="M14.9540078,3.55271368e-15 L0,7.55766537 L0,12.5276265 L14.9540078,4.97007782 L29.9013619,12.5276265 L29.9013619,7.55766537 L14.9540078,3.55271368e-15 Z" id="chevron"></path>
                </g>
                <g id="chevron-link" transform="translate(0.000000, 17.352490)">
                    <path d="M14.9540078,3.55271368e-15 L0,7.55766537 L0,12.5276265 L14.9540078,4.97007782 L29.9013619,12.5276265 L29.9013619,7.55766537 L14.9540078,3.55271368e-15 Z" id="chevron"></path>
                </g>
            </g>
            <g id="css3" transform="translate(93.000000, 137.000000)" sketch:type="MSShapeGroup">
                <path d="M27.1224138,10.5 L24.9087931,35.7083333 L14.9413793,38.455 L14.9017241,10.5 L27.1224138,10.5 L27.1224138,10.5 Z M29.8637931,8.15333333 C29.8637931,8.15333333 28.0517241,27.9716667 27.0639655,37.5598333 C23.1103448,38.68 15.205,40.9166667 14.9586207,40.9166667 C14.7948276,40.9166667 6.88965517,38.68 2.85344828,37.5598333 C1.94827586,27.9716667 0.136206897,8.15333333 0.136206897,8.15333333 L29.8637931,8.15333333 L29.8637931,8.15333333 Z" id="Fill-1" fill="#ECEDED"></path>
                <path d="M27.1465517,10.4716667 L24.9396552,35.8183333 L14.8603448,38.535 L14.8603448,10.4716667 L27.1465517,10.4716667" id="Fill-2" fill="#ECEDED"></path>
                <path d="M24.3137931,14.2216667 L23.9174138,17.62 L15.7413793,21.4883333 L23.6224138,21.4883333 L22.6655172,32.6366667 L14.8017241,34.6866667 L7.32068966,32.5766667 L6.78793103,26.9401667 L10.612069,26.96 L10.7793103,29.7883333 L14.8017241,30.8515 L19.242931,29.7548333 L19.612069,25.055 L6.62758621,25.075 L6.33793103,21.6533333 L15.1310345,17.85 L5.98275862,17.72 L5.73448276,14.2216667 L24.3137931,14.2216667" id="Fill-3" fill="#FFFFFF"></path>
                <path d="M23.8687931,0.0833333333 L23.8687931,1.98333333 L22.3463793,1.98333333 L23.8275862,3.96333333 L23.8275862,5.54666667 L19.3860345,5.54666667 L19.3860345,3.805 L20.8258621,3.805 C20.8258621,3.805 20.867069,3.765 20.867069,3.725 L19.2637931,1.54833333 L19.2637931,0.0833333333 L23.8687931,0.0833333333 L23.8687931,0.0833333333 Z M17.3724138,0.0833333333 L17.3724138,1.98333333 L15.8931034,1.98333333 L17.3724138,3.92333333 L17.3724138,5.54666667 L12.9327586,5.54666667 L12.9327586,3.765 L14.412069,3.765 L12.8086207,1.50833333 L12.8086207,0.0833333333 L17.3724138,0.0833333333 L17.3724138,0.0833333333 Z M10.8362069,0.0833333333 L10.8362069,1.905 L8.1637931,1.905 L8.1637931,3.805 L10.8362069,3.805 L10.8362069,5.54666667 L6.23103448,5.54666667 L6.23103448,0.0833333333 L10.8362069,0.0833333333 L10.8362069,0.0833333333 Z" id="Fill-4" fill="#ECEDED"></path>
            </g>
        </g>
    </g>
</svg>