<?xml version="1.0" encoding="utf-8"?>
<!-- Generator: Adobe Illustrator 17.1.0, SVG Export Plug-In . SVG Version: 6.00 Build 0)  -->
<!DOCTYPE svg PUBLIC "-//W3C//DTD SVG 1.1//EN" "http://www.w3.org/Graphics/SVG/1.1/DTD/svg11.dtd">
<svg version="1.1" id="Layer_1" xmlns="http://www.w3.org/2000/svg" xmlns:xlink="http://www.w3.org/1999/xlink" x="0px" y="0px"
	 width="228px" height="137.2px" viewBox="0 0 228 137.2" enable-background="new 0 0 228 137.2" xml:space="preserve">
<g>
	<g>
		<path fill="#F8B734" d="M147.6,92c0,0,0.8,0.3,0.4,4c-0.4,3.7-2.4,17.3-7.3,29.4c0,0,2.5,1.2,5.1,0.5c0,0,1.8,0.1,3.4-4.2
			c1.6-4.3,2.6-5.9,2.6-5.9l3,6.4c0,0,3.3,6.2,8.6,2.3l0.1,2.3c0,0,5.3-1.5,9.8,1.3c4.5,2.8,7,6.1,10.9,5.2c3.9-1,5.1-4,4.2-7.1
			c0,0-3.2,3.3-8.9-0.2c0,0-4.9-4.3-9-4l14.8-16.5c0,0,1.8-1.9,1.7-5.3c0,0-11.1,2.3-16.7-0.5c0,0-3.3,3.2-1.4,5.5
			c1.9,2.3,8.9,1.3,8.9,1.3l-10.2,11.8c0,0-1.8,2.5-4.5,1.8c-2.7-0.6-3.9-2-6.1-9c0,0,5.4-7.1,9.9-6.2c0,0,0.4-5-3.3-5
			s-12.1,11.5-12.1,11.5s4.1-15.1,3.5-19.6C155,91.8,154.6,88.4,147.6,92z"/>
		<path fill="#F8B734" d="M143,109c-0.3-10-8.2-9.2-8.2-9.2c-8.7,0.1-14.6,8.3-15.2,13.5c-0.5,3.6-1.2,11.4,6.8,12.9
			C134.3,127.8,143.3,119,143,109z M135.1,114.7c-2.5,10.3-7.4,7.6-7.4,7.6s-3-1.3-0.6-11.1c0,0,2.6-8.6,6.2-7.9
			C133.3,103.3,137.6,104.4,135.1,114.7z"/>
		<path fill="#F8B734" d="M109.5,114.5c3.9-1,10.3-4.4,11-8.4c0.6-4-1-7.1-7.5-6.5s-14.4,8-14.6,18.7c0,0-2,2.8-5.8,2.8
			c0,0-0.2-2.8,1.4-10.2c0,0,7.4-6.5,7.1-18.4c0,0-0.6-2.1-3.7-2.2c-3.1-0.2-4.2,1-5,2.9c-0.7,1.9-5.9,22.3-5.9,22.3
			s-3.4,2.9-2.8,2.9s2.5-1.6,2.5-1.6s-2.2,7.6,1.2,8.9c3.3,1.4,8-0.4,11.1-4.4c0,0,1.4,6.7,11.2,5s9.9-6.4,9-7.9c0,0-2.9,4-9.3,4.2
			c0,0-5-0.1-4-5.6C105.5,117,105.6,115.5,109.5,114.5z M109.9,104c2-1.7,4.2-1.1,4.2,0.9s-1.5,4.5-4.1,5.8s-4,2.9-4,2.9
			C105.9,111.2,107.9,105.8,109.9,104z M99.3,93.8c0.7-0.8,1.4,1-0.9,7.3c-1.6,4.5-3.6,6.5-3.6,6.5S98.6,94.6,99.3,93.8z"/>
	</g>
	<g>
		<path fill="#F8B734" d="M0,111.4c1.5-0.3,2.7-0.8,3.4-1.5s1.1-2.1,1.1-4.1V94.2c0-2.6,0.6-4.5,1.9-5.7s3.7-1.8,7.2-1.7l0.1,1.2
			c-1.2,0.3-2.2,0.6-2.8,0.9c-0.7,0.4-1.1,0.8-1.4,1.3C9.2,90.7,9,91.3,9,92c-0.1,0.7-0.1,1.6-0.1,2.6v8.7c0,2.6-0.3,4.6-1,5.8
			c-0.7,1.3-1.9,2.2-3.8,2.7v0.2c1.8,0.6,3.1,1.5,3.8,2.7c0.7,1.3,1,3.2,1,5.8v8.7c0,1,0,1.8,0.1,2.6c0.1,0.7,0.2,1.3,0.5,1.8
			s0.8,1,1.4,1.3c0.7,0.4,1.6,0.7,2.8,0.9l0.1,1.2c-3.5,0-6-0.6-7.3-1.7c-1.3-1.2-1.9-3.1-1.9-5.7V118c0-2-0.4-3.4-1.1-4.1
			s-1.9-1.2-3.4-1.5L0,111.4z"/>
		<path fill="#F8B734" d="M80.8,137.2c-7.9-6.7-11.8-15.1-11.8-25.4S72.9,93,80.8,86.3l1.1,1c-5.5,6.2-8.3,14.3-8.3,24.4
			s2.8,18.3,8.3,24.5L80.8,137.2z"/>
		<path fill="#F8B734" d="M194.5,86.4c7.9,6.7,11.8,15.1,11.8,25.4s-3.9,18.8-11.8,25.5l-1.1-1c5.5-6.2,8.3-14.3,8.3-24.4
			s-2.8-18.3-8.3-24.5L194.5,86.4z"/>
		<path fill="#F8B734" d="M227.9,112.3c-1.5,0.3-2.6,0.8-3.4,1.5c-0.7,0.7-1.1,2.1-1.1,4.1v11.6c0,2.6-0.6,4.5-1.9,5.7
			c-1.3,1.2-3.7,1.8-7.2,1.7l-0.1-1.2c1.2-0.3,2.2-0.6,2.8-0.9c0.7-0.4,1.1-0.8,1.4-1.3c0.3-0.5,0.5-1.1,0.5-1.8
			c0.1-0.7,0.1-1.6,0.1-2.6v-8.7c0-2.6,0.3-4.6,1-5.8c0.7-1.3,1.9-2.2,3.8-2.7v-0.2c-1.8-0.6-3.1-1.5-3.8-2.7c-0.7-1.3-1-3.2-1-5.8
			v-8.7c0-1,0-1.8-0.1-2.6c-0.1-0.7-0.2-1.3-0.5-1.8s-0.8-1-1.4-1.3c-0.7-0.4-1.6-0.7-2.8-0.9l-0.1-1.2c3.5,0,6,0.6,7.3,1.7
			c1.3,1.2,1.9,3.1,1.9,5.7v11.6c0,2,0.4,3.4,1.1,4.1c0.7,0.7,1.9,1.2,3.4,1.5L227.9,112.3z"/>
	</g>
</g>
<text transform="matrix(1 0 0 1 6.8 67.87)" fill="#F8B734" font-family="'PassionOne-Bold'" font-size="100">DEVS</text>
<text transform="matrix(1 0 0 1 20.7999 118.2)"><tspan x="0" y="0" fill="#F8B734" font-family="'AnonymousPro'" font-size="21">p</tspan><tspan x="11.5" y="0" fill="#F8B734" font-family="'AnonymousPro'" font-size="21" letter-spacing="-1">elo</tspan></text>
</svg>
