<?xml version="1.0" encoding="utf-8"?>
<!-- Generator: Adobe Illustrator 18.1.1, SVG Export Plug-In . SVG Version: 6.00 Build 0)  -->
<svg version="1.1" id="Layer_1" xmlns="http://www.w3.org/2000/svg" xmlns:xlink="http://www.w3.org/1999/xlink" x="0px" y="0px"
	 width="228px" height="137.2px" viewBox="0 0 228 137.2" enable-background="new 0 0 228 137.2" xml:space="preserve">
<g>
	<g>
		<path fill="#F8B734" d="M28.3,7.7h-8v3.7h6.1v6.3h-6.1v10h-9.4V0.4h18L28.3,7.7z"/>
		<path fill="#F8B734" d="M51.8,9.2c0,1.8-0.3,3.2-0.9,4.2c-0.6,1-1.5,2-2.7,2.7l4.1,11.6h-9.7L40,18.3h-0.7v9.4h-9V0.4h11.7
			c3.4,0,5.9,0.7,7.5,2.1C51,4,51.8,6.2,51.8,9.2z M41.6,12.4c0.3-0.4,0.4-1.1,0.4-2.1c0-1-0.1-1.7-0.4-2.1
			c-0.3-0.4-0.7-0.6-1.4-0.6h-1.1V13h1.1C40.8,13,41.3,12.8,41.6,12.4z"/>
		<path fill="#F8B734" d="M54.1,13.9c0-4.9,1-8.4,2.9-10.6C59,1.1,62.2,0,66.7,0c4.5,0,7.7,1.1,9.6,3.3c1.9,2.2,2.9,5.7,2.9,10.6
			c0,4.9-1,8.5-3,10.8c-2,2.4-5.2,3.5-9.6,3.5c-4.4,0-7.6-1.2-9.5-3.5C55.1,22.4,54.1,18.8,54.1,13.9z M69.1,8.7
			c-0.4-0.8-1.2-1.1-2.5-1.1c-1.3,0-2.1,0.4-2.4,1.1c-0.4,0.7-0.5,2.3-0.5,4.7v1.9c0,2.5,0.2,4.1,0.6,4.8c0.4,0.7,1.2,1.1,2.5,1.1
			s2.1-0.4,2.4-1.1c0.3-0.7,0.5-2.3,0.5-4.7v-2C69.7,11,69.5,9.4,69.1,8.7z"/>
		<path fill="#F8B734" d="M105,27.8h-9L90.4,17h-0.3v10.8h-8.4V0.4h9.3l5.2,11.1h0.3V0.4h8.4V27.8z"/>
		<path fill="#F8B734" d="M127.6,7.9h-5.8v19.9h-9.4V7.9h-6.1l0.4-7.4h21.4L127.6,7.9z"/>
		<path fill="#F8B734" d="M144,19.9h-14.9v-7.1H144V19.9z"/>
		<path fill="#F8B734" d="M164.6,27.8h-17.4V0.4h18l-0.6,7.3h-8V11h7v6.3h-7v3.7h8.6L164.6,27.8z"/>
		<path fill="#F8B734" d="M190.6,27.8h-9L176.1,17h-0.3v10.8h-8.4V0.4h9.3l5.2,11.1h0.3V0.4h8.4V27.8z"/>
		<path fill="#F8B734" d="M217.7,13.5c0,9.5-4.3,14.2-13,14.2h-10.6V0.4h10.8c4.7,0,8,1.1,9.9,3.4C216.8,6,217.7,9.3,217.7,13.5z
			 M207.5,19.4c0.4-1,0.7-2.7,0.7-5.1s-0.2-4.1-0.7-5.1c-0.5-1-1.5-1.5-3-1.5h-0.9v13.3h1.1C206.1,20.9,207,20.4,207.5,19.4z"/>
	</g>
	<g>
		<path fill="#F8B734" d="M25.9,59.8c0,2.5,1.1,3.7,3.4,3.7c2.2,0,3.3-1.3,3.3-3.8V32.1h14.8v28.5c0,5.1-1.6,8.8-4.8,11.3
			c-3.2,2.5-7.7,3.7-13.7,3.7c-12.1,0-18.1-5-18.1-14.9V32.1h15.1V59.8z"/>
		<path fill="#F8B734" d="M89.5,75H75.4l-8.7-16.9h-0.5V75H53.1V32.1h14.6l8.1,17.5h0.4V32.1h13.3V75z"/>
		<path fill="#F8B734" d="M110,75H95.4V32.1H110V75z"/>
		<path fill="#F8B734" d="M145.9,43.8h-9.1V75h-14.7V43.8h-9.6l0.6-11.7h33.6L145.9,43.8z"/>
		<path fill="#F8B734" d="M176.2,75h-27.3V32.1h28.3l-1,11.4h-12.6v5.2h11v9.9h-11v5.9h13.5L176.2,75z"/>
		<path fill="#F8B734" d="M217.7,52.6c0,14.9-6.8,22.4-20.4,22.4h-16.6V32.1h17c7.3,0,12.5,1.8,15.5,5.3
			C216.2,40.9,217.7,46,217.7,52.6z M201.6,61.8c0.7-1.6,1-4.3,1-8c0-3.8-0.4-6.4-1.1-8c-0.8-1.6-2.3-2.4-4.7-2.4h-1.4v20.9h1.7
			C199.4,64.2,201,63.4,201.6,61.8z"/>
	</g>
	<g>
		<path fill="#F8B734" d="M28.2,109.5h-5.2v9.2h2.8v1.5h-7.4v-1.5h2.8v-9.2h-2.8V108h2.8c0-1.7,0.4-3,1.3-3.9c0.9-0.9,2.2-1.3,4-1.3
			c0.4,0,0.8,0,1,0c0.3,0,0.5,0.1,0.7,0.1v1.5c-0.3,0-0.5-0.1-0.8-0.1c-0.3,0-0.6,0-1,0c-1.1,0-2,0.3-2.6,0.9
			c-0.6,0.6-0.9,1.5-0.9,2.8h5.2V109.5z"/>
		<path fill="#F8B734" d="M43.1,114.2c0,1-0.2,1.8-0.5,2.6c-0.3,0.8-0.7,1.4-1.3,2c-0.6,0.6-1.2,1-2,1.3c-0.8,0.3-1.7,0.5-2.6,0.5
			c-1,0-1.8-0.2-2.6-0.5c-0.8-0.3-1.5-0.8-2-1.3c-0.6-0.6-1-1.2-1.3-2c-0.3-0.8-0.5-1.6-0.5-2.6c0-0.9,0.2-1.8,0.5-2.6
			c0.3-0.8,0.7-1.5,1.3-2c0.6-0.6,1.2-1,2-1.3c0.8-0.3,1.7-0.5,2.6-0.5c1,0,1.9,0.2,2.6,0.5c0.8,0.3,1.5,0.8,2,1.3
			c0.6,0.6,1,1.2,1.3,2C43,112.4,43.1,113.2,43.1,114.2z M41.3,114.2c0-0.7-0.1-1.3-0.3-1.9c-0.2-0.6-0.5-1.1-0.9-1.6
			c-0.4-0.4-0.9-0.8-1.5-1c-0.6-0.3-1.2-0.4-1.9-0.4c-0.7,0-1.4,0.1-1.9,0.4c-0.6,0.3-1.1,0.6-1.5,1c-0.4,0.4-0.7,1-0.9,1.6
			c-0.2,0.6-0.3,1.2-0.3,1.9c0,0.7,0.1,1.3,0.3,1.9c0.2,0.6,0.5,1.1,0.9,1.5c0.4,0.4,0.9,0.8,1.5,1c0.6,0.2,1.2,0.4,1.9,0.4
			c0.7,0,1.4-0.1,1.9-0.4c0.6-0.2,1.1-0.6,1.5-1c0.4-0.4,0.7-0.9,0.9-1.5C41.2,115.5,41.3,114.9,41.3,114.2z"/>
		<path fill="#F8B734" d="M56.8,109.7c-0.6-0.3-1.4-0.5-2.3-0.5c-0.7,0-1.4,0.2-2,0.5c-0.6,0.3-1.1,0.7-1.5,1.2
			c-0.4,0.5-0.7,1.1-0.9,1.8c-0.2,0.7-0.3,1.3-0.3,2v3.9h2.8v1.5h-7.3v-1.5H48v-9.2h-2.8V108h4.6v3.1c0.8-2.2,2.4-3.4,4.7-3.4
			c0.6,0,1.2,0,1.6,0.1c0.5,0.1,0.9,0.2,1.3,0.4L56.8,109.7z"/>
	</g>
	<g>
		<path fill="#F8B734" d="M147.6,92c0,0,0.8,0.3,0.4,4c-0.4,3.7-2.4,17.3-7.3,29.4c0,0,2.5,1.2,5.1,0.5c0,0,1.8,0.1,3.4-4.2
			c1.6-4.3,2.6-5.9,2.6-5.9l3,6.4c0,0,3.3,6.2,8.6,2.3l0.1,2.3c0,0,5.3-1.5,9.8,1.3c4.5,2.8,7,6.1,10.9,5.2c3.9-1,5.1-4,4.2-7.1
			c0,0-3.2,3.3-8.9-0.2c0,0-4.9-4.3-9-4l14.8-16.5c0,0,1.8-1.9,1.7-5.3c0,0-11.1,2.3-16.7-0.5c0,0-3.3,3.2-1.4,5.5
			c1.9,2.3,8.9,1.3,8.9,1.3l-10.2,11.8c0,0-1.8,2.5-4.5,1.8c-2.7-0.6-3.9-2-6.1-9c0,0,5.4-7.1,9.9-6.2c0,0,0.4-5-3.3-5
			c-3.7,0-12.1,11.5-12.1,11.5s4.1-15.1,3.5-19.6C155,91.8,154.6,88.4,147.6,92z"/>
		<path fill="#F8B734" d="M143,109c-0.3-10-8.2-9.2-8.2-9.2c-8.7,0.1-14.6,8.3-15.2,13.5c-0.5,3.6-1.2,11.4,6.8,12.9
			C134.3,127.8,143.3,119,143,109z M135.1,114.7c-2.5,10.3-7.4,7.6-7.4,7.6s-3-1.3-0.6-11.1c0,0,2.6-8.6,6.2-7.9
			C133.3,103.3,137.6,104.4,135.1,114.7z"/>
		<path fill="#F8B734" d="M109.5,114.5c3.9-1,10.3-4.4,11-8.4c0.6-4-1-7.1-7.5-6.5c-6.5,0.6-14.4,8-14.6,18.7c0,0-2,2.8-5.8,2.8
			c0,0-0.2-2.8,1.4-10.2c0,0,7.4-6.5,7.1-18.4c0,0-0.6-2.1-3.7-2.2c-3.1-0.2-4.2,1-5,2.9c-0.7,1.9-5.9,22.3-5.9,22.3
			s-3.4,2.9-2.8,2.9c0.6,0,2.5-1.6,2.5-1.6s-2.2,7.6,1.2,8.9c3.3,1.4,8-0.4,11.1-4.4c0,0,1.4,6.7,11.2,5c9.8-1.7,9.9-6.4,9-7.9
			c0,0-2.9,4-9.3,4.2c0,0-5-0.1-4-5.6C105.5,117,105.6,115.5,109.5,114.5z M109.9,104c2-1.7,4.2-1.1,4.2,0.9c0,2-1.5,4.5-4.1,5.8
			c-2.6,1.3-4,2.9-4,2.9C105.9,111.2,107.9,105.8,109.9,104z M99.3,93.8c0.7-0.8,1.4,1-0.9,7.3c-1.6,4.5-3.6,6.5-3.6,6.5
			S98.6,94.6,99.3,93.8z"/>
	</g>
	<g>
		<path fill="#F8B734" d="M0,111.4c1.5-0.3,2.7-0.8,3.4-1.5c0.7-0.7,1.1-2.1,1.1-4.1V94.2c0-2.6,0.6-4.5,1.9-5.7
			c1.3-1.2,3.7-1.8,7.2-1.7l0.1,1.2c-1.2,0.3-2.2,0.6-2.8,0.9c-0.7,0.4-1.1,0.8-1.4,1.3c-0.3,0.5-0.5,1.1-0.5,1.8
			c-0.1,0.7-0.1,1.6-0.1,2.6v8.7c0,2.6-0.3,4.6-1,5.8c-0.7,1.3-1.9,2.2-3.8,2.7v0.2c1.8,0.6,3.1,1.5,3.8,2.7c0.7,1.3,1,3.2,1,5.8
			v8.7c0,1,0,1.8,0.1,2.6c0.1,0.7,0.2,1.3,0.5,1.8c0.3,0.5,0.8,1,1.4,1.3c0.7,0.4,1.6,0.7,2.8,0.9l0.1,1.2c-3.5,0-6-0.6-7.3-1.7
			c-1.3-1.2-1.9-3.1-1.9-5.7v-11.6c0-2-0.4-3.4-1.1-4.1c-0.7-0.7-1.9-1.2-3.4-1.5L0,111.4z"/>
		<path fill="#F8B734" d="M80.8,137.2c-7.9-6.7-11.8-15.1-11.8-25.4c0-10.3,3.9-18.8,11.8-25.5l1.1,1c-5.5,6.2-8.3,14.3-8.3,24.4
			c0,10.1,2.8,18.3,8.3,24.5L80.8,137.2z"/>
		<path fill="#F8B734" d="M194.5,86.4c7.9,6.7,11.8,15.1,11.8,25.4c0,10.3-3.9,18.8-11.8,25.5l-1.1-1c5.5-6.2,8.3-14.3,8.3-24.4
			c0-10.1-2.8-18.3-8.3-24.5L194.5,86.4z"/>
		<path fill="#F8B734" d="M227.9,112.3c-1.5,0.3-2.6,0.8-3.4,1.5c-0.7,0.7-1.1,2.1-1.1,4.1v11.6c0,2.6-0.6,4.5-1.9,5.7
			c-1.3,1.2-3.7,1.8-7.2,1.7l-0.1-1.2c1.2-0.3,2.2-0.6,2.8-0.9c0.7-0.4,1.1-0.8,1.4-1.3c0.3-0.5,0.5-1.1,0.5-1.8
			c0.1-0.7,0.1-1.6,0.1-2.6v-8.7c0-2.6,0.3-4.6,1-5.8c0.7-1.3,1.9-2.2,3.8-2.7v-0.2c-1.8-0.6-3.1-1.5-3.8-2.7c-0.7-1.3-1-3.2-1-5.8
			v-8.7c0-1,0-1.8-0.1-2.6c-0.1-0.7-0.2-1.3-0.5-1.8c-0.3-0.5-0.8-1-1.4-1.3c-0.7-0.4-1.6-0.7-2.8-0.9l-0.1-1.2c3.5,0,6,0.6,7.3,1.7
			c1.3,1.2,1.9,3.1,1.9,5.7v11.6c0,2,0.4,3.4,1.1,4.1c0.7,0.7,1.9,1.2,3.4,1.5L227.9,112.3z"/>
	</g>
</g>
</svg>
